<?xml version="1.0" encoding="UTF-8"?>
<svg width="512px" height="432px" viewBox="0 0 512 432" version="1.1" xmlns="http://www.w3.org/2000/svg" xmlns:xlink="http://www.w3.org/1999/xlink">
    <!-- Generator: Sketch 64 (93537) - https://sketch.com -->
    <title>heart-svgrepo-com</title>
    <desc>Created with Sketch.</desc>
    <defs>
        <linearGradient x1="78.7025102%" y1="35.2877618%" x2="21.8480602%" y2="82.5040143%" id="linearGradient-1">
            <stop stop-color="#FFD1D1" offset="0%"></stop>
            <stop stop-color="#FF5B5B" offset="100%"></stop>
        </linearGradient>
    </defs>
    <g id="Page-1" stroke="none" stroke-width="1" fill="none" fill-rule="evenodd">
        <g id="heart-svgrepo-com" fill-rule="nonzero">
            <path d="M378.384,0.795 C324.37,0.795 276.853,33.345 256,80.738 C235.146,33.344 187.63,0.795 133.616,0.795 C59.94,0.795 0,60.734 0,134.41 C0,207.041 82.38,277.754 121.97,311.735 L122.325,312.04 C156.216,341.132 248.085,427.562 249.009,428.432 C250.973,430.28 253.486,431.204 256,431.204 C258.513,431.204 261.026,430.28 262.991,428.432 C263.915,427.562 355.782,341.133 389.675,312.04 L390.03,311.735 C429.62,277.753 512,207.04 512,134.41 C512,60.734 452.06,0.795 378.384,0.795 Z" id="Path" fill="#000000"></path>
            <path d="M376.743,296.259 L376.388,296.564 C347.688,321.2 278.267,386.128 256,407.015 C233.733,386.128 164.312,321.2 135.612,296.564 L135.257,296.259 C100.887,266.756 20.398,197.667 20.398,134.41 C20.398,71.982 71.187,21.193 133.615,21.193 C190.342,21.193 238.608,63.545 245.885,119.708 C246.544,124.792 250.873,128.597 256,128.597 C261.126,128.597 265.456,124.792 266.115,119.708 C273.393,63.545 321.658,21.193 378.385,21.193 C440.813,21.193 491.602,71.982 491.602,134.41 C491.602,197.667 411.113,266.756 376.743,296.259 Z" id="Path" fill="url(#linearGradient-1)"></path>
            <path d="M263.991,362.575 C230.293,331.109 185.504,289.635 163.496,270.743 L163.186,270.477 C159.373,267.204 155.051,263.495 150.425,259.449 C146.185,255.74 139.741,256.17 136.034,260.411 C132.325,264.65 132.756,271.094 136.996,274.802 C141.694,278.911 146.054,282.654 149.9,285.956 L150.21,286.222 C173.097,305.868 222.599,351.834 250.069,377.485 C252.035,379.321 254.534,380.23 257.028,380.23 C259.755,380.23 262.476,379.143 264.485,376.992 C268.329,372.873 268.109,366.42 263.991,362.575 Z" id="Path" fill="#000000"></path>
            <path d="M122.645,233.979 C116.159,227.682 110.033,221.428 104.435,215.389 C100.605,211.257 94.152,211.012 90.021,214.841 C85.889,218.671 85.644,225.124 89.473,229.255 C95.313,235.556 101.693,242.07 108.435,248.615 C110.417,250.54 112.978,251.496 115.538,251.496 C118.199,251.496 120.857,250.461 122.858,248.402 C126.783,244.36 126.687,237.903 122.645,233.979 Z" id="Path" fill="#000000"></path>
        </g>
    </g>
</svg>